<?xml version="1.0" encoding="utf-8"?>
<!-- Generator: Adobe Illustrator 22.1.0, SVG Export Plug-In . SVG Version: 6.00 Build 0)  -->
<svg version="1.1" id="Layer_1" xmlns="http://www.w3.org/2000/svg" xmlns:xlink="http://www.w3.org/1999/xlink" x="0px" y="0px"
	 viewBox="0 0 208 29.1" style="enable-background:new 0 0 208 29.1;" xml:space="preserve">
<style type="text/css">
	.st0{fill:#33414A;}
</style>
<title>text_brand</title>
<desc>Created with Sketch.</desc>
<g>
	<path class="st0" d="M8.1,28.9c-2.9,0-5.7-0.6-8.1-1.8l0.9-5.6c2.5,1.3,4.6,2,6.6,2c1.7,0,2.7-0.8,2.7-2.2c0-1.6-1-2.6-4-4.6
		c-2.9-1.9-5.8-4.2-5.8-8.3c0-4.8,3.3-8,8.3-8c2.8,0,4.7,0.5,6.7,1.4l-0.9,5.7c-2.1-1.2-3.7-1.7-5.3-1.7C7.8,5.8,7,6.7,7,7.7
		c0,1.3,1,2.2,3.8,4c3.1,2,6,4.5,6,8.9C16.8,25.9,13.3,28.9,8.1,28.9z"/>
	<path class="st0" d="M38.7,28.6L38,9l-3.3,19.6h-6.5L24.8,9L24,28.6h-5.8l1.1-27.8h9.1l3.2,18.5l3.3-18.5h9l1.2,27.8H38.7z"/>
	<path class="st0" d="M61.1,28.8l-1.3-6h-6.1l-1.2,5.8h-6.6l7.2-27.9H61l6.9,27.1L61.1,28.8z M56.8,8.2l-2,9.4h4L56.8,8.2z"/>
	<path class="st0" d="M76.6,18.7h-0.7v9.9h-6.4V0.8h7.3c6,0,10,2.9,10,8.7c0,3.7-1.7,6-4.3,7.5l5.6,11l-6.6,1L76.6,18.7z M76.4,14.1
		c2.6,0,4.1-1.2,4.1-4.2c0-2.8-1.5-4-4.1-4h-0.6v8.2H76.4z"/>
	<path class="st0" d="M100,6.5v22.1h-6.7V6.5h-5.8V0.8h17.8l0.9,5.7H100z"/>
	<path class="st0" d="M114.5,6.4V12h5.2l0.9,5.8h-6.1v10.8h-6.6V0.8H122v5.7L114.5,6.4L114.5,6.4z"/>
	<path class="st0" d="M133.3,29.1c-7.1,0-10.6-5.6-10.6-14.4s3.6-14.5,10.7-14.5c7,0,10.6,5.6,10.6,14.4S140.3,29.1,133.3,29.1z
		 M133.4,5.6c-2.8,0-3.8,3.4-3.8,9.1s1,9.1,3.8,9.1c2.7,0,3.8-3.4,3.8-9.1S136.1,5.6,133.4,5.6z"/>
	<path class="st0" d="M153.6,18.7h-0.7v9.9h-6.4V0.8h7.3c6,0,10,2.9,10,8.7c0,3.7-1.7,6-4.3,7.5l5.6,11l-6.6,1L153.6,18.7z
		 M153.4,14.1c2.6,0,4.1-1.2,4.1-4.2c0-2.8-1.5-4-4.1-4h-0.6v8.2H153.4z"/>
	<path class="st0" d="M176.3,29c-7.1,0-10.7-5.3-10.7-14.3c0-8.9,3.7-14.4,10.5-14.4c2.7,0,4.6,0.6,6.2,1.5l-0.9,5.7
		c-1.7-1.1-2.7-1.7-4.5-1.7c-2.9,0-4.6,3-4.6,8.8s1.7,8.8,5.1,8.8c1.4,0,2.7-0.6,4.4-1.7l0.9,5.5C180.7,28.3,178.8,29,176.3,29z"/>
	<path class="st0" d="M184.8,28.6V0.8h14.7v5.4h-8.1v5.2h5.8l0.9,5.6h-6.8v6.2h8.5v5.4H184.8z"/>
	<path class="st0" d="M204.7,7c-1.9,0-3.3-1.6-3.3-3.5s1.4-3.5,3.3-3.5c1.9,0,3.3,1.5,3.3,3.5S206.6,7,204.7,7z M204.7,0.5
		c-1.7,0-2.8,1.3-2.8,3s1.1,3,2.8,3s2.8-1.3,2.8-3C207.5,1.9,206.4,0.5,204.7,0.5z M205.3,5.5l-0.7-1.4l0,0v1.4h-1.2V1.4h1.2
		c1,0,1.7,0.4,1.7,1.3c0,0.6-0.3,0.9-0.6,1.1l0.8,1.5L205.3,5.5z M204.6,2.3L204.6,2.3v1l0,0c0.3,0,0.5-0.1,0.5-0.5
		C205.1,2.4,204.9,2.3,204.6,2.3z"/>
</g>
</svg>
